<svg xmlns="http://www.w3.org/2000/svg" viewBox="0 0 26 26"><g fill="#a6822e"><path d="M18 17.76v3.36c0 1.04-.84 1.88-1.88 1.88H4.88A1.88 1.88 0 013 21.12V9.88C3 8.85 3.84 8 4.88 8H8.3l3-3H4.88A4.87 4.87 0 000 9.88v11.24C0 23.82 2.18 26 4.88 26h11.25c2.69 0 4.87-2.18 4.87-4.88v-6.36l-3 3z"/><path d="M22.58 0H12.32c-1.88 0-1.75.51-.76 1.5l3.22 3.22-5.52 5.52a2.93 2.93 0 000 4.14l2.41 2.41a2.93 2.93 0 004.14 0l5.52-5.52 3.16 3.16c1.1 1.1 1.5 1.13 1.5-.75L26 3.42C26-.02 26.02 0 22.58 0z"/><path d="M13.33 17.6a3.33 3.33 0 01-.96-.33c-.33-.17-.46-.29-1.77-1.58A31.4 31.4 0 019 14.02a2.75 2.75 0 01-.56-1.72c0-.49.08-.85.3-1.31.16-.31.29-.45 3.12-3.29l2.95-2.96-1.8-1.8C11.34 1.24 10.96.8 10.89.54c-.04-.16.11-.33.39-.42.2-.07.63-.08 6.43-.09 6.28-.01 6.91 0 7.4.15.33.1.62.39.72.71.15.51.16 1.1.15 7.46-.01 6.12-.02 6.25-.1 6.48-.06.16-.13.27-.2.3-.1.06-.13.06-.32-.03-.26-.13-1.02-.83-2.67-2.49l-1.35-1.36-2.93 2.92c-2.82 2.81-2.94 2.93-3.28 3.1-.2.1-.46.21-.6.25-.23.07-.95.12-1.2.08z"/></g></svg>