<svg xmlns="http://www.w3.org/2000/svg" id="svg893" version="1.1" height="56.83" width="400">
   <defs id="defs835">
      <path d="M22.75 26.46h160.87v18.52H22.75z" id="b" />
      <path d="M127 57.45h55.86v27.14H127z" id="a" />
   </defs>
   <g id="g839" stroke-width="1.5" fill="#5732a6" font-family="Savoye LET" font-size="9.88" font-weight="400" style="line-height:1.25;-inkscape-font-specification:'Savoye LET, Normal';font-variant-ligatures:normal;font-variant-caps:normal;font-variant-numeric:normal;font-variant-east-asian:normal;white-space:pre;shape-inside:url(#a);fill:#573288;fill-opacity:1" transform="matrix(2.86356 0 0 2.8595 -40.55 -128.01)" aria-label="Адвокат">
      <path style="fill:#ffffff;fill-opacity:1" id="path837" d="M132.62 62.27l-.46 2.14h-.3q-.19-.57-.58-1.1-.4-.54-.89-.89-.33.51-.73.92-.4.4-.87.7-.45.28-.94.44-.5.16-.97.16l-.28-.02.16-.37q.25.03.38.03 1.33 0 2.36-1.03.21-.21.43-.49t.46-.65q.52-.83.9-1.54l.45-.88q.53-1.02.82-1.39.29-.36.58-.36.09 0 .15.04.08.03.12.11.03.07.03.17l-.02.2-.03.18-.74 3.47h.35l-.04.16zm-.45 0h-1.69l.02.02q.43.33.74.67.3.35.6.83zm-1.56-.16h1.59l.68-3.28.04-.16q.03-.1.03-.18 0-.12-.1-.12-.14 0-.32.28-.19.27-.64 1.12l-.27.53-.2.35-.46.84q-.28.53-.35.62zM134.03 64.49q-.29 0-.46-.21-.17-.21-.17-.55 0-.39.12-.76t.33-.66q.22-.29.5-.46.29-.18.61-.18.37 0 .57.2l.03-.2.01-.26.01-.25v-.2-.27l-.06-.34-.1-.36q-.08-.18-.2-.32-.1-.15-.27-.23-.16-.1-.4-.1l-.14.02-.2.04-.22.1q-.12.06-.23.15l-.06-.1q.11-.1.25-.18.14-.07.29-.12.14-.05.27-.07.14-.03.23-.03.38 0 .61.15.25.15.38.4.13.23.17.55.05.3.05.63 0 .44-.07.88-.08.44-.22.84-.13.4-.32.74-.18.35-.4.6-.2.26-.44.4-.24.15-.47.15zm1.42-2.35q-.06-.16-.2-.24-.14-.1-.3-.1-.18 0-.33.1-.15.08-.28.23-.12.14-.22.34t-.17.4l-.1.44q-.03.22-.03.42 0 .25.1.4.1.15.32.15.15 0 .3-.11.16-.12.29-.3.13-.19.24-.42.12-.23.2-.47.08-.24.13-.46.05-.22.05-.38zM136.74 62.97q.34-.65.71-.97.37-.32.73-.32.16 0 .27.05.1.05.16.13.07.09.1.21.02.12.02.27 0 .2-.05.44-.06.24-.17.48-.1.24-.25.46-.15.22-.34.4-.18.16-.4.27-.2.1-.44.1-.09 0-.2-.03-.13-.02-.24-.12-.1-.1-.18-.3-.07-.2-.07-.57 0-.3.04-.65.04-.34.14-.8l-.16.02h-.2l.02-.12.2-.01q.11-.01.18-.04.17-.66.4-1.28.25-.62.55-1.1.3-.47.63-.76.33-.29.67-.29.14 0 .24.06.1.05.16.13t.09.19q.03.1.03.22 0 .27-.1.55t-.28.55q-.17.28-.41.54-.23.26-.5.5-.27.23-.57.42-.29.2-.57.34l-.06.24-.06.27-.05.27-.04.25zm0 .8l.01.21.05.19q.04.09.1.14.07.06.17.06.17 0 .33-.1t.3-.27q.14-.18.25-.4.11-.22.19-.45t.12-.45q.05-.22.05-.4 0-.23-.08-.33-.07-.1-.23-.1-.1 0-.24.08-.13.07-.27.2t-.28.31q-.13.18-.24.4-.1.2-.16.44-.07.24-.07.48zm.25-2q.44-.23.8-.55.39-.33.66-.7.28-.37.43-.76.15-.39.15-.74 0-.24-.06-.34-.06-.1-.22-.1-.15 0-.29.1-.14.11-.28.3-.14.18-.28.42-.13.24-.25.51l-.23.54-.19.53-.14.45-.1.34zM139.14 63.48q0-.43.23-.86.24-.43.6-.7.38-.27.77-.27.4 0 .65.27.25.26.25.69 0 .46-.23.9-.23.43-.6.7-.38.28-.76.28-.4 0-.66-.27-.25-.28-.25-.74zm2.06-1.06q0-.29-.14-.47-.14-.2-.36-.2-.2 0-.4.14-.18.13-.33.38-.17.29-.29.67-.11.39-.11.69 0 .36.14.55.14.2.4.2.42 0 .74-.6.16-.3.26-.66.1-.37.1-.7zM142.58 61.79l.46-.2-.42 1.79.25-.42.27-.39.27-.33.25-.27.2-.16q.1-.08.18-.12.1-.05.2-.07l.27-.03-.1.45q-.1-.04-.18-.05h-.14q-.09 0-.2.05-.12.05-.24.15-.11.09-.23.22-.1.12-.2.28l.17.44.2.48.22.39q.11.15.2.15.21 0 .5-.3l.03-.04.06.07q-.48.6-.7.6-.08 0-.15-.04-.08-.03-.13-.1-.09-.1-.16-.24l-.15-.32-.16-.38-.18-.41q-.18.26-.34.59-.16.33-.24.79l-.31.08zM147.63 61.56l-.45 1.76q-.08.3-.08.46 0 .14.07.25.06.1.15.1.14 0 .46-.34l.07.07-.05.06q-.26.3-.4.42-.13.11-.23.11-.16 0-.27-.16-.12-.16-.12-.37 0-.16.12-.7l.04-.18q-.18.41-.48.8-.5.63-.96.63-.27 0-.43-.2-.16-.2-.16-.53 0-.45.25-.95.26-.5.65-.82.38-.32.74-.32.38 0 .57.28l.06-.18zm-.56.62q-.05-.19-.2-.29-.13-.1-.3-.1-.22 0-.46.2-.23.19-.43.53-.15.28-.26.61-.1.33-.1.55 0 .25.09.39.1.14.27.14.22 0 .46-.21.24-.2.48-.6.15-.22.23-.44.08-.22.18-.61zM150.07 64.36l-.31.1.38-1.96.03-.17q.03-.14.03-.24 0-.2-.17-.2-.16 0-.39.21-.22.21-.47.62-.17.26-.29.5-.11.24-.21.51-.1.27-.2.63l-.3.1.5-2.67.47-.2-.42 1.75q.32-.75.74-1.23t.75-.48q.36 0 .36.41 0 .14-.07.5l-.16.72q.47-.9.79-1.27.32-.37.64-.37.18 0 .28.1.1.11.1.31 0 .16-.1.55l-.14.6-.05.18q-.07.3-.07.45 0 .15.05.25.06.09.14.09.15 0 .48-.36l.07.07-.04.05q-.27.33-.41.44-.13.11-.24.11-.15 0-.26-.15-.1-.15-.1-.38 0-.14.07-.46l.17-1 .03-.17q.03-.14.03-.23t-.05-.14q-.05-.05-.15-.05-.1 0-.23.09t-.27.27q-.15.18-.33.48-.24.41-.39.77-.15.35-.29.87z" />
   </g>
   <g id="g885" stroke-width="1.5" fill="#5732a6" font-family="Snell Roundhand" font-size="10.58" font-weight="500" style="line-height:1.25;-inkscape-font-specification:'Snell Roundhand, Medium';font-variant-ligatures:normal;font-variant-caps:normal;font-variant-numeric:normal;font-variant-east-asian:normal;white-space:pre;shape-inside:url(#b);fill:#573288;fill-opacity:1;stroke:none;stroke-opacity:1" transform="matrix(2.86356 0 0 2.8595 -67.98 -81.13)" aria-label="Кынтэрец Людмила Николаевна">
      <path style="fill:#ffffff;fill-opacity:1;stroke:none;stroke-opacity:1" id="path841" d="M33.49 33.24q-.16.21-.42.5-.24.3-.54.62-.3.32-.63.64-.34.3-.68.55-.34.24-.67.4-.32.15-.61.15-.3 0-.55-.17-.24-.17-.24-.5 0-.28.14-.61l.32-.68q.18-.35.32-.68.15-.34.15-.62 0-.3-.17-.42t-.33-.12h-.12l-.11.02q-.15 0-.15-.1 0-.05.04-.06l.06-.02.2.02.2.01q.52 0 .96-.26.44-.28.85-.67.4-.4.8-.87t.82-.87q.4-.4.85-.66.46-.28.98-.28.42 0 .68.16.27.15.27.42 0 .18-.12.32-.11.14-.27.14-.16 0-.18-.08.08-.07.11-.16.04-.1.04-.22 0-.2-.14-.32-.14-.13-.4-.13-.32 0-.63.25-.3.26-.63.65l-.71.84q-.38.44-.85.84-.46.4-1.04.67-.56.27-1.28.32v.02q.35.18.5.44.15.27.15.69 0 .26-.12.57-.11.3-.25.62l-.26.56q-.11.26-.11.44 0 .21.08.3.1.07.25.07.24 0 .55-.15.3-.16.63-.4.33-.24.66-.55.33-.3.62-.61.3-.31.53-.59.24-.28.38-.47zm-5.84-2.5q.1.24.1.5 0 .23-.13.5-.12.26-.37.48-.24.23-.6.37-.34.14-.78.14-.27 0-.51-.08-.25-.1-.44-.26-.18-.15-.3-.38-.1-.22-.1-.5 0-.45.28-.83.27-.4.77-.7.5-.32 1.17-.55.7-.24 1.5-.4.8-.16 1.71-.23.91-.09 1.85-.09.2 0 .36-.03l.32-.07.3-.09q.11-.04.18-.04.06 0 .1.03.05.02.05.07 0 .1-.14.13-.14.02-.4.02-.64 0-1.17.36-.52.36-.97.93-.45.56-.86 1.25-.4.68-.8 1.31-.33.52-.75 1.14-.4.61-.9 1.14-.5.53-1.06.89-.58.35-1.23.35-.17 0-.36-.04-.2-.04-.36-.12-.16-.09-.27-.22-.1-.15-.1-.35 0-.18.11-.3.12-.13.3-.13.16 0 .25.11.1.1.1.25 0 .11-.07.22-.08.1-.2.1 0 .15.2.26.2.1.46.1.32 0 .63-.17.3-.16.59-.42.28-.28.55-.64l.53-.74.49-.8.46-.75q.45-.72.85-1.31.4-.6.82-1.07.43-.47.9-.79.48-.31 1.06-.47v-.02q-.42 0-1.09.05-.66.05-1.4.17-.74.11-1.49.33-.74.2-1.34.51-.6.32-.99.78-.37.44-.37 1.06 0 .42.26.66.25.25.59.25.35 0 .65-.12.3-.13.53-.32.24-.2.36-.44.14-.26.14-.51 0-.12-.03-.23l-.04-.22z" />
      <path style="fill:#ffffff;fill-opacity:1;stroke:none;stroke-opacity:1" id="path843" d="M36.67 34.13q-.37.52-.54.84-.14.24-.2.4-.05.18-.05.3 0 .14.08.23.07.07.18.07.13 0 .28-.05.16-.05.35-.17.2-.13.45-.34.24-.21.55-.53.3-.3.63-.7.34-.42.74-.96l.11.03q-.4.57-.76 1-.35.42-.66.74-.22.23-.45.43-.24.2-.47.36-.23.15-.44.23-.22.09-.4.09-.24 0-.44-.14-.19-.15-.19-.47 0-.18.1-.44.09-.27.33-.61l.32-.45h-.02q-.25.25-.61.41-.34.17-.6.2-.05.19-.19.5-.13.31-.5.6-.23.19-.54.3-.32.1-.6.1-.4 0-.63-.23-.24-.24-.24-.62 0-.22.1-.53.1-.32.35-.64l1.22-1.7h.7l-1 1.34q-.47.63-.67 1.01-.19.38-.19.72 0 .2.13.36.14.16.35.16.17 0 .38-.08.21-.09.41-.34.18-.24.26-.47.08-.23.11-.46-.1-.06-.17-.18-.05-.14-.05-.31 0-.3.13-.41.14-.13.27-.13.17 0 .29.15.12.14.12.4 0 .14-.02.2v.16q.16-.02.34-.1.18-.07.36-.18.21-.12.4-.3.2-.17.35-.38.08-.1.17-.26l.22-.31.2-.32.19-.28h.73z" />
      <path style="fill:#ffffff;fill-opacity:1;stroke:none;stroke-opacity:1" id="path845" d="M39.59 32.37h.66l-1.04 1.59h1.58l1.08-1.59h.73l-1.33 1.82q-.28.4-.43.66-.23.37-.28.55l-.04.24q0 .18.08.26.09.07.2.07.1 0 .25-.04.16-.05.36-.18.21-.13.46-.35.27-.22.6-.57.57-.57 1.33-1.61l.1.03q-.73 1.04-1.36 1.67-1.14 1.18-1.8 1.18-.34 0-.53-.17-.18-.17-.18-.44l.02-.22.1-.28.14-.27q.08-.16.17-.27l.24-.36h-1.57L37.91 36h-.66z" />
      <path style="fill:#ffffff;fill-opacity:1;stroke:none;stroke-opacity:1" id="path847" d="M41.94 36.01l.54-.85.6-.95.62-.95.55-.89h.65l-1.4 1.97.02.02.49-.59q.28-.36.62-.69.35-.33.74-.56.4-.23.8-.23.26 0 .42.14.17.12.17.38 0 .14-.1.36l-.26.43-.29.41-.23.33.02.02q.22-.32.53-.67.32-.36.67-.67.36-.32.73-.52.38-.21.73-.21.3 0 .45.15.16.14.16.4 0 .19-.13.43-.11.25-.3.52-.18.27-.4.54l-.4.53q-.18.25-.3.48-.12.2-.12.36 0 .12.07.2.09.07.2.07.26 0 .6-.2.35-.2.74-.56.4-.36.83-.86.44-.5.88-1.1l.09.03q-.44.6-.87 1.11-.43.51-.85.9-.4.37-.78.6-.37.2-.69.2-.33 0-.48-.17-.16-.2-.16-.47 0-.2.11-.44.13-.26.31-.52.19-.27.4-.53l.4-.5q.18-.25.3-.45.13-.2.13-.33 0-.15-.09-.2-.07-.06-.19-.06-.2 0-.5.14-.28.14-.6.4-.3.26-.63.6-.33.35-.65.75-.3.4-.58.84-.28.43-.48.86h-.67q.3-.53.63-1.05l.65-.98.5-.78q.2-.34.2-.5 0-.28-.3-.28-.27 0-.6.2-.32.19-.66.5t-.67.71q-.33.4-.62.8t-.51.77q-.22.36-.35.61z" />
      <path style="fill:#ffffff;fill-opacity:1;stroke:none;stroke-opacity:1" id="path849" d="M50.82 33.23l.24-.35q.14-.18.31-.33.18-.16.4-.25.22-.1.48-.1.47 0 .69.26.22.24.22.58 0 .42-.12.7-.11.3-.17.42.33 0 .63-.07t.58-.2q.24-.12.46-.29.22-.18.4-.43l.1.05q-.38.49-.93.75-.56.27-1.29.3l-.37.54q-.22.3-.64.63-.36.29-.83.48-.45.18-.92.18-.28 0-.46-.08-.19-.07-.3-.19-.1-.12-.14-.28-.04-.16-.04-.33 0-.29.16-.48t.4-.19q.18 0 .26.1.09.11.09.25 0 .15-.1.25-.08.08-.22.08-.17 0-.25-.15-.08.05-.1.14-.03.08-.03.15 0 .1.03.2.03.12.12.2.07.08.2.15.16.05.38.05.48 0 1.04-.44.56-.45 1.07-1.27H50.7l.06-.13h1.46q.14-.22.24-.53.12-.3.12-.66 0-.24-.14-.42-.13-.19-.35-.19-.21 0-.38.1-.16.08-.3.23-.15.15-.27.32l-.23.31z" />
      <path style="fill:#ffffff;fill-opacity:1;stroke:none;stroke-opacity:1" id="path851" d="M57.45 30.32q-.57.86-1.17 1.68-.6.83-1.15 1.7l.02.02.37-.46q.21-.25.45-.46.25-.23.53-.36.29-.15.59-.15.33 0 .57.18.23.18.23.62 0 .28-.07.53-.08.24-.2.47-.12.2-.28.4l-.3.34.01.02q.77-.14 1.38-.52.62-.38 1.24-1.14l.08.04q-.47.58-.89.91-.4.33-.76.5-.35.16-.64.22l-.57.13q-.18.13-.4.32-.23.2-.48.38-.26.16-.53.3-.28.1-.56.1-.15 0-.3-.08-.14-.07-.14-.25 0-.22.21-.37.23-.15.53-.23.32-.1.66-.14l.57-.08q.14-.15.28-.38t.26-.48q.12-.26.2-.52.06-.28.06-.51 0-.37-.1-.48-.1-.11-.26-.11-.24 0-.51.18-.27.17-.54.45-.28.28-.55.63-.27.34-.5.67l-.42.64-.32.45-.28.4-.4.61-.47.73-.5.78-.46.78-.39.66h-.66q1.43-2.3 2.91-4.55 1.5-2.26 2.95-4.57zm-2.39 5.65q.16 0 .35-.1.2-.11.38-.26.2-.15.34-.3.15-.14.21-.22l-.02-.02-.45.08q-.27.03-.52.1-.24.05-.42.17-.17.1-.17.3 0 .12.1.19.09.06.2.06z" />
      <path style="fill:#ffffff;fill-opacity:1;stroke:none;stroke-opacity:1" id="path853" d="M61.52 32.71q0-.15-.08-.22t-.2-.07q-.21 0-.48.17-.25.17-.5.44-.26.25-.47.55-.2.3-.3.53.22-.04.57-.16.35-.13.67-.3.33-.19.56-.42.23-.24.23-.52zm1.72.56q-.16.27-.4.58-.24.32-.54.64-.3.3-.65.6-.34.29-.7.52-.38.22-.76.36-.37.13-.73.13-.44 0-.69-.22-.24-.24-.24-.66 0-.47.27-.97.29-.52.72-.96.44-.43.96-.72.51-.28 1-.28.26 0 .4.11.15.11.15.32 0 .26-.27.5-.28.23-.68.43-.4.2-.85.35-.45.15-.8.22-.12.22-.2.48-.07.27-.07.53 0 .13.02.25l.09.23q.06.1.16.16t.25.06q.35 0 .82-.22.47-.24.96-.62t.93-.87q.45-.48.76-1z" />
      <path style="fill:#ffffff;fill-opacity:1;stroke:none;stroke-opacity:1" id="path855" d="M66.64 32.37l-.68.91-.51.72-.43.64-.28.44q-.1.2-.14.33-.04.13-.04.24 0 .32.3.32.2 0 .59-.21.38-.22 1-.86.57-.58 1.4-1.68l.1.03q-.38.54-.75.99-.36.43-.7.77-.53.56-.98.82l-.24.14-.13.14q-.07.1-.12.21-.13.25-.13.65 0 .3-.09.51-.07.23-.2.37-.14.15-.33.26-.18.1-.4.18l-.48.16-.04-.1.38-.15q.32-.11.45-.38.13-.25.13-.65 0-.31.1-.5.1-.18.28-.33l.25-.2.17-.1q-.19.06-.34.06-.3 0-.47-.16-.17-.17-.17-.45 0-.32.17-.66l-.02-.01q-.47.54-.94.88-.56.4-1.02.4-.62 0-.62-.55 0-.12.06-.32.05-.2.3-.63l.25-.38q.13-.2.33-.46l.99-1.39h.7l-1.19 1.6-.37.52q-.19.27-.28.44l-.18.34q-.06.12-.08.2l-.02.1v.07q0 .13.09.21.08.08.2.08.47 0 1.26-.73l.27-.28.3-.34.3-.34.25-.33.19-.29.26-.4.29-.45.27-.4zM80.26 28.52q-.42.4-.86.94-.42.55-.81 1.17-.38.6-.7 1.21-.32.6-.5 1.1-.19.46-.3.79-.09.31-.14.56-.06.23-.08.42v.35q0 .32.1.56.1.23.45.23.24 0 .63-.26.4-.26.95-.84.29-.3.61-.68.33-.38.7-.86l.06.04-.71.9q-.32.4-.6.71-.61.65-1.07.94-.45.3-.83.3-.26 0-.44-.1t-.3-.26q-.1-.17-.15-.37-.04-.21-.04-.44 0-.36.12-.96.14-.61.46-1.32.43-.97 1.1-1.93.68-.96 1.59-1.84l-.02-.02q-.33.16-.74.42-.4.26-.9.69-.5.42-1.1 1.07-.6.64-1.33 1.57l-.59.76q-.28.37-.56.7-.28.35-.57.65-.29.3-.62.57-.44.37-.94.6-.49.2-.98.2-.45 0-.73-.17-.28-.2-.28-.53 0-.2.1-.32.11-.13.3-.13.16 0 .26.11.1.1.1.25 0 .11-.04.22-.04.1-.16.12.16.25.62.25.35 0 .78-.18.43-.2.86-.53.35-.29.66-.62.32-.32.63-.7l.62-.78.7-.86q.56-.7 1.15-1.32.6-.62 1.19-1.11.6-.5 1.19-.83.58-.33 1.13-.48z" />
      <path style="fill:#ffffff;fill-opacity:1;stroke:none;stroke-opacity:1" id="path857" d="M80.68 32.37h.67l-1.05 1.59h1.17q.05-.05.09-.12.23-.32.5-.6.3-.29.56-.47.41-.27.74-.38.34-.1.64-.1.25 0 .44.08.2.09.35.32l.08.2.06.16q.02.1 0 .17.08.34.3.49.22.14.52.14.33 0 .6-.15.26-.17.5-.42l.09.07q-.25.25-.57.43-.3.18-.64.18-.18 0-.32-.04-.14-.06-.24-.13-.1-.07-.17-.15l-.1-.12h-.02q-.08.32-.37.82-.28.49-.75.92-.5.47-.97.66-.46.18-.83.18-.43 0-.68-.25-.24-.25-.24-.74 0-.28.15-.61.08-.21.21-.41h-1.17L79 36h-.66zm3.68.6q0-.28-.12-.42-.12-.13-.31-.13-.26 0-.6.2-.33.19-.64.54-.61.7-.84 1.26-.24.56-.24.95 0 .28.1.44.11.16.33.16.11 0 .27-.04.17-.04.36-.15.2-.12.41-.3.23-.2.46-.52.44-.6.63-1.14.2-.54.2-.85z" />
      <path style="fill:#ffffff;fill-opacity:1;stroke:none;stroke-opacity:1" id="path859" d="M91.47 33.31q-.37.4-.75.76-.37.33-.77.62-.87.6-1.97.94-.34.25-.7.36-.35.1-.66.1-.4 0-.65-.24-.23-.25-.23-.7 0-.3.13-.6.12-.31.3-.59.2-.27.4-.5l.34-.36q.48-.43.94-.62.46-.2.77-.2.08 0 .19.03.1.02.2.1.1.06.17.18.08.12.1.31h.04q.28-.7.52-1.46.23-.76.23-1.56 0-.62-.24-.85-.2-.18-.54-.18-.16 0-.35.06-.2.07-.37.17l-.4.27-.05-.1q.27-.21.54-.36.23-.12.46-.18t.5-.06q.4 0 .62.19.36.3.36 1.1 0 .26-.04.55l-.1.58q-.06.3-.15.58-.08.29-.17.54l-.22.58-.27.65-.31.62q-.16.3-.32.52-.16.24-.36.46-.19.21-.46.44.48-.16.9-.37.42-.22.81-.5.38-.27.74-.6.37-.33.74-.73zm-2.9-.9q-.26 0-.63.26-.36.25-.69.64-.4.48-.67 1.04-.27.55-.27 1.02 0 .33.12.46.11.14.3.14.31 0 .67-.21.36-.21.73-.67.23-.3.41-.6.18-.3.29-.58.12-.28.17-.51.06-.24.06-.4 0-.58-.5-.58z" />
      <path style="fill:#ffffff;fill-opacity:1;stroke:none;stroke-opacity:1" id="path861" d="M96.79 32.37l-.64.88-.53.72q-.5.69-.7 1.08-.2.4-.2.6 0 .32.3.32.21 0 .62-.24.42-.26 1.02-.9.3-.3.63-.71.34-.4.7-.9l.1.03q-.72 1.02-1.35 1.66-.36.37-.63.6-.28.24-.5.37-.22.12-.4.17-.18.05-.34.05-.28 0-.44-.17-.17-.18-.17-.46 0-.14.04-.28.04-.15.16-.36l-.02-.01-.43.44q-.2.2-.43.37-.28.21-.55.34-.28.13-.55.13-.26 0-.43-.16-.16-.16-.16-.46 0-.14.06-.3.07-.17.17-.31l-.02-.01-.51.54q-.23.23-.45.4-.2.14-.4.21-.2.09-.41.09-.37 0-.57-.22-.1-.12-.16-.28-.05-.16-.05-.34 0-.28.16-.5.15-.2.39-.2.18 0 .26.1.1.1.1.23 0 .34-.34.34-.08 0-.14-.03-.07-.04-.1-.12-.08.09-.1.17l-.02.15q0 .1.04.21.03.1.1.2.17.16.42.16.49 0 1.06-.54.58-.54 1.37-1.62l.49-.65.53-.76.72-.03-.73.98-.54.74-.41.59-.26.42q-.1.17-.14.3-.04.13-.04.23 0 .15.09.22.1.08.22.08.21 0 .45-.13.25-.13.53-.37.25-.21.51-.49.27-.28.55-.62.34-.4.67-.9l.67-1.05z" />
      <path style="fill:#ffffff;fill-opacity:1;stroke:none;stroke-opacity:1" id="path863" d="M99.17 32.37l-.8 1.07q-.38.51-.67.93-.3.43-.48.74-.17.31-.17.5 0 .16.09.24.08.08.22.08.2 0 .43-.13.25-.13.49-.33.25-.2.49-.44t.44-.48q.21-.24.36-.44.16-.2.23-.32l.93-1.42h.73l-.97 1.34q-.39.54-.64.92t-.35.62q-.1.23-.1.41 0 .13.06.23.08.08.22.08.2 0 .48-.15.28-.16.57-.4.3-.25.59-.56.3-.32.55-.62l.47-.58.33-.44.1.03-.33.47-.48.59-.56.63q-.3.32-.61.58-.3.25-.62.42-.3.16-.56.16-.3 0-.47-.16-.17-.17-.17-.45 0-.2.06-.4l.1-.25-.01-.02q-.23.25-.47.48-.24.24-.49.42-.24.17-.5.27-.24.1-.48.1-.34 0-.49-.14-.15-.16-.15-.37 0-.27.15-.57.14-.3.4-.69.25-.38.6-.86.36-.47.78-1.09z" />
      <path style="fill:#ffffff;fill-opacity:1;stroke:none;stroke-opacity:1" id="path865" d="M105.72 32.37l-1.53 2.15q-.54.77-.54 1.13 0 .32.28.32.24 0 .66-.25.42-.27 1.11-1 .28-.28.57-.65.31-.37.66-.85l.1.03q-.35.5-.67.89l-.6.69q-.65.7-1.12 1-.45.27-.8.27-.3 0-.48-.16-.16-.17-.16-.45 0-.14.07-.32.06-.18.16-.34l-.02-.01q-.25.3-.47.53l-.4.36q-.27.2-.49.3-.21.09-.45.09-.16 0-.32-.08-.17-.07-.26-.2-.17-.23-.17-.58 0-.25.16-.46.15-.23.38-.23.18 0 .28.1.1.1.1.23 0 .15-.09.25-.07.1-.23.1-.08 0-.14-.02-.07-.03-.12-.13-.06.05-.1.16l-.02.16q0 .23.16.41.13.16.39.16.16 0 .36-.06.2-.07.5-.3.34-.28.72-.75.4-.47.92-1.17l.42-.6q.2-.34.43-.69z" />
      <path style="fill:#ffffff;fill-opacity:1;stroke:none;stroke-opacity:1" id="path867" d="M109.72 32.37h.69l-.76 1.07q-.36.52-.64.96-.28.44-.45.78-.17.33-.17.52 0 .27.3.27.21 0 .55-.21.35-.22.75-.6t.83-.9q.42-.5.8-1.07l.07.02q-.29.43-.68.94-.38.5-.8.93-.43.44-.85.73-.43.29-.8.29-.3 0-.45-.15-.14-.16-.14-.37 0-.15.04-.29l.11-.3h-.02l-.35.35q-.2.19-.45.36-.23.17-.48.28-.26.12-.49.12-.4 0-.55-.25-.16-.24-.16-.55 0-.43.28-.95.27-.53.7-.98.42-.47.92-.78.5-.3.94-.3.21 0 .37.06.16.05.26.16.1.1.16.22.07.13.1.27h.02zm-3.46 2.97q0 .24.1.38.1.12.28.12.18 0 .42-.12.24-.14.5-.36.27-.23.53-.51.26-.3.46-.63.2-.32.33-.66t.13-.65q0-.24-.14-.37-.14-.12-.34-.12-.32 0-.7.27-.4.28-.75.7-.35.43-.59.95-.23.52-.23 1zM117.91 30.38q.12.2.12.48 0 .35-.17.63t-.44.5q-.27.2-.6.3-.33.11-.64.11-.66 0-1.03-.32-.36-.33-.36-.8 0-.52.3-.93.3-.41.8-.72.52-.3 1.2-.52.7-.2 1.48-.34.8-.13 1.64-.19.85-.06 1.66-.06.29 0 .48-.07.19-.08.37-.08l.1.02q.06.02.06.09 0 .13-.14.15-.14.02-.41.02-.83 0-1.76.9-.92.92-2.02 2.8h1.52l.56-.8q.33-.43.71-.86.4-.43.83-.83.43-.4.9-.7.46-.31.94-.5.48-.18.94-.18.22 0 .41.14.2.12.2.36 0 .14-.1.25-.1.1-.24.1-.13 0-.22-.1l-.14-.2q-.08-.12-.17-.2-.1-.1-.26-.1-.37 0-.87.34-.5.33-1.02.88-.53.54-1.05 1.25-.5.7-.92 1.44-.4.73-.66 1.45-.24.72-.24 1.3 0 .24.08.43.1.2.28.2.34 0 .74-.27.4-.28.8-.69.4-.41.78-.9.37-.5.64-.96l.1.04q-.1.2-.3.49l-.44.61q-.25.33-.54.66-.3.33-.63.59-.31.26-.64.42-.33.17-.66.17-.24 0-.41-.08-.17-.08-.28-.21-.1-.14-.16-.32-.04-.18-.04-.38 0-.37.1-.74.1-.38.25-.73t.33-.67l.35-.58h-1.52l-.74 1.14q-.4.64-.9 1.19-.5.55-1.1.93-.6.37-1.3.37-.17 0-.36-.04-.19-.04-.36-.12-.16-.09-.27-.22-.1-.14-.1-.34 0-.18.12-.3.13-.11.3-.11.16 0 .26.1.1.09.1.23 0 .17-.1.26-.08.08-.23.08.05.16.24.25.2.08.45.08.33 0 .64-.17.32-.17.6-.44.3-.28.58-.65.27-.37.52-.76l.5-.8.47-.75.77-1.18q.4-.6.85-1.11.46-.51 1.03-.9.59-.37 1.34-.54v-.02q-1.45 0-2.64.2-1.18.2-2.03.56-.85.36-1.31.87-.47.5-.47 1.12 0 .16.06.32.05.16.15.28.11.12.28.2.17.08.4.08.27 0 .55-.1.3-.1.54-.28.24-.2.4-.45.16-.26.16-.57 0-.17-.03-.27l-.08-.22z" />
      <path style="fill:#ffffff;fill-opacity:1;stroke:none;stroke-opacity:1" id="path869" d="M124.24 32.37l-.8 1.07-.67.93q-.3.43-.48.74-.17.31-.17.5 0 .16.09.24.08.08.22.08.2 0 .44-.13t.48-.33q.26-.2.49-.44.24-.24.44-.48.22-.24.36-.44l.24-.32.93-1.42h.73l-.98 1.34q-.39.54-.64.92-.24.38-.35.62-.1.23-.1.41 0 .13.07.23.07.08.21.08.21 0 .49-.15.27-.16.57-.4.3-.25.58-.56.3-.32.55-.62.27-.31.48-.58l.32-.44.11.03-.34.47-.47.59-.57.63q-.3.32-.6.58-.32.25-.62.42-.3.16-.56.16-.3 0-.48-.16-.17-.17-.17-.45 0-.2.06-.4l.11-.25-.02-.02q-.22.25-.47.48-.24.24-.48.42-.25.17-.5.27-.24.1-.49.1-.34 0-.48-.14-.15-.16-.15-.37 0-.27.15-.57.13-.3.39-.69.25-.38.6-.86.36-.47.78-1.09z" />
      <path style="fill:#ffffff;fill-opacity:1;stroke:none;stroke-opacity:1" id="path871" d="M128.2 32.4l.68-.03-.75 1.06-.41.58.02.02.58-.61q.29-.29.55-.5.76-.63 1.44-.63.3 0 .48.14.19.12.19.4 0 .15-.08.26-.06.1-.18.18-.1.08-.24.12-.14.03-.27.03.09-.15.14-.3.05-.18.05-.32 0-.2-.09-.28-.08-.1-.23-.1-.2 0-.48.14-.27.14-.7.51-.55.46-1.17 1.19-.62.73-1.18 1.75h-.65zm4.3.9q-.6.84-1.1 1.39-.49.54-.89.86-.4.3-.7.43-.33.12-.58.12-.34 0-.5-.15-.15-.15-.15-.42 0-.15.07-.3.06-.16.17-.37l.17-.34q.07-.13.07-.24 0-.1-.08-.14-.08-.03-.16-.03l-.21.02q-.11.02-.23.02-.14 0-.17-.03v-.06q0-.1.2-.1l.1.01.16.01.19.02.19.03q.42.13.42.53 0 .17-.05.33l-.1.32-.12.28q-.04.14-.04.27 0 .12.04.17.04.04.18.04.17 0 .45-.14.3-.13.68-.45.4-.32.87-.84.47-.53 1.03-1.31z" />
      <path style="fill:#ffffff;fill-opacity:1;stroke:none;stroke-opacity:1" id="path873" d="M137.2 33.34q-.26.28-.58.45-.32.17-.62.17t-.51-.13q-.21-.13-.33-.31h-.02q-.1.4-.4.85-.28.46-.68.84-.4.38-.87.63-.47.26-.97.26-.46 0-.69-.27-.23-.26-.23-.7 0-.24.11-.55.12-.3.32-.6.21-.33.49-.62.28-.31.61-.54.33-.25.69-.38.37-.15.74-.15.43 0 .67.25.24.26.26.66.02.24.22.45.22.2.58.2.31 0 .59-.15.28-.16.53-.42zm-5.33 2.04q0 .27.1.43.11.16.32.16.29 0 .56-.15.29-.16.54-.4.27-.25.49-.57.22-.32.38-.66.17-.34.27-.65.1-.33.1-.6 0-.22-.13-.37-.1-.15-.33-.15t-.48.14q-.25.14-.52.37-.25.24-.49.54-.23.31-.42.64-.18.33-.28.65-.11.33-.11.62zM140.18 32.37l-1.53 2.15q-.54.77-.54 1.13 0 .32.28.32.24 0 .66-.25.42-.27 1.11-1 .27-.28.57-.65.3-.37.66-.85l.1.03q-.36.5-.67.89l-.6.69q-.65.7-1.12 1-.45.27-.8.27-.31 0-.48-.16-.16-.17-.16-.45 0-.14.07-.32.06-.18.15-.34l-.02-.01q-.24.3-.46.53l-.4.36q-.27.2-.5.3-.2.09-.45.09-.16 0-.31-.08-.17-.07-.26-.2-.17-.23-.17-.58 0-.25.16-.46.15-.23.38-.23.18 0 .28.1.1.1.1.23 0 .15-.1.25-.07.1-.22.1-.08 0-.14-.02-.08-.03-.12-.13-.06.05-.1.16-.03.1-.03.16 0 .23.16.41.14.16.4.16.15 0 .35-.06.22-.07.51-.3.34-.28.72-.75.4-.47.92-1.17l.42-.6q.2-.34.43-.69z" />
      <path style="fill:#ffffff;fill-opacity:1;stroke:none;stroke-opacity:1" id="path875" d="M144.18 32.37h.68l-.75 1.07q-.36.52-.64.96-.28.44-.45.78-.17.33-.17.52 0 .27.29.27.22 0 .56-.21.35-.22.75-.6t.83-.9q.42-.5.8-1.07l.06.02q-.28.43-.67.94-.38.5-.8.93-.43.44-.85.73-.43.29-.8.29-.3 0-.45-.15-.14-.16-.14-.37 0-.15.04-.29l.1-.3h-.01l-.35.35q-.2.19-.45.36-.23.17-.48.28-.26.12-.5.12-.38 0-.54-.25-.16-.24-.16-.55 0-.43.27-.95.28-.53.7-.98.43-.47.92-.78.5-.3.95-.3.2 0 .37.06.16.05.26.16.1.1.16.22.06.13.1.27h.02zm-3.47 2.97q0 .24.1.38.1.12.29.12.18 0 .42-.12.24-.14.5-.36.27-.23.53-.51.26-.3.46-.63.2-.32.33-.66t.13-.65q0-.24-.14-.37-.14-.12-.34-.12-.32 0-.7.27-.4.28-.75.7-.35.43-.6.95-.23.52-.23 1z" />
      <path style="fill:#ffffff;fill-opacity:1;stroke:none;stroke-opacity:1" id="path877" d="M147.95 32.71q0-.15-.09-.22-.07-.07-.19-.07-.22 0-.49.17-.25.17-.5.44-.26.25-.47.55-.2.3-.3.53.23-.04.58-.16.35-.13.66-.3.33-.19.56-.42.24-.24.24-.52zm1.71.56q-.16.27-.4.58-.23.32-.54.64-.3.3-.65.6-.33.29-.7.52-.38.22-.76.36-.37.13-.73.13-.44 0-.68-.22-.25-.24-.25-.66 0-.47.28-.97.28-.52.72-.96.43-.43.95-.72.52-.28 1-.28.26 0 .4.11.15.11.15.32 0 .26-.27.5-.28.23-.68.43-.39.2-.84.35-.46.15-.8.22-.13.22-.2.48-.07.27-.07.53 0 .13.02.25.03.12.08.23.07.1.16.16.1.06.26.06.34 0 .81-.22.48-.24.96-.62.49-.38.93-.87.45-.48.77-1z" />
      <path style="fill:#ffffff;fill-opacity:1;stroke:none;stroke-opacity:1" id="path879" d="M149.46 33.76q-.4.63-.61 1.04-.2.4-.2.66 0 .25.11.38.13.13.37.13.3 0 .77-.3.5-.32.96-.95.15-.2.28-.41.14-.22.24-.42.1-.22.15-.4.07-.2.07-.36 0-.16-.05-.25-.06-.1-.06-.26 0-.18.09-.26.1-.07.2-.07.18 0 .28.18.11.18.11.52l-.01.24-.03.21q.06.09.26.22.21.14.55.14.34 0 .58-.17.26-.17.43-.38l.07.08q-.18.2-.44.39-.27.19-.65.19-.25 0-.47-.1-.22-.1-.38-.23-.14.43-.4.8-.24.36-.58.68-.63.6-1.15.82-.52.22-.94.22-.38 0-.63-.23-.24-.23-.24-.62 0-.19.1-.45.1-.28.26-.56l.31-.57.3-.46 1.6-2.47q.27-.41.6-.76.3-.36.77-.7.42-.33.82-.47.4-.16.74-.16.36 0 .48.1t.12.32q0 .29-.24.64-.23.34-.68.74-.34.3-.75.61l-.82.6-1.65 1.11zm2.18-2.16q.37-.25.75-.58.4-.34.67-.68t.44-.67q.17-.33.17-.61 0-.16-.07-.22-.07-.07-.2-.07-.2 0-.44.16-.24.15-.48.4-.24.23-.46.52-.21.29-.37.55l-1.42 2.16z" />
      <path style="fill:#ffffff;fill-opacity:1;stroke:none;stroke-opacity:1" id="path881" d="M154.4 32.37h.66L154 33.96h1.59l1.08-1.59h.73l-1.34 1.82q-.28.4-.43.66-.22.37-.27.55-.05.18-.05.24 0 .18.09.26.08.07.19.07.1 0 .25-.04.16-.05.36-.18.21-.13.47-.35.26-.22.6-.57.56-.57 1.32-1.61l.11.03q-.74 1.04-1.37 1.67-1.14 1.18-1.8 1.18-.33 0-.52-.17-.18-.17-.18-.44l.02-.22q.03-.14.1-.28l.13-.27.17-.27.24-.36h-1.56L152.7 36h-.66z" />
      <path style="fill:#ffffff;fill-opacity:1;stroke:none;stroke-opacity:1" id="path883" d="M161.46 32.37h.68l-.75 1.07q-.36.52-.64.96-.28.44-.45.78-.17.33-.17.52 0 .27.29.27.22 0 .56-.21.35-.22.75-.6t.83-.9q.42-.5.8-1.07l.06.02q-.28.43-.67.94-.38.5-.8.93-.43.44-.85.73-.43.29-.8.29-.3 0-.45-.15-.14-.16-.14-.37 0-.15.04-.29l.1-.3h-.01l-.35.35q-.2.19-.45.36-.23.17-.48.28-.26.12-.5.12-.38 0-.54-.25-.16-.24-.16-.55 0-.43.28-.95.27-.53.7-.98.42-.47.91-.78.5-.3.95-.3.2 0 .37.06.16.05.26.16.1.1.16.22.06.13.1.27h.02zM158 35.34q0 .24.09.38.1.12.29.12.18 0 .42-.12.24-.14.5-.36.27-.23.53-.51.26-.3.46-.63.2-.32.33-.66t.13-.65q0-.24-.14-.37-.14-.12-.34-.12-.32 0-.7.27-.4.28-.75.7-.35.43-.6.95-.22.52-.22 1z" />
   </g>
   <path style="fill:none;fill-opacity:1;stroke:#ffffff;stroke-opacity:1" id="path887" stroke-linejoin="round" stroke-linecap="round" stroke="#5732a6" fill="#d9c7ff" d="M2.6 33.78h391.44" />
</svg>
