<svg xmlns="http://www.w3.org/2000/svg"
  xmlns:xlink="http://www.w3.org/1999/xlink" width="30" height="30" viewBox="0 0 10.58 10.58">
  <defs>
    <linearGradient id="b">
      <stop offset="0" stop-color="navy"/>
      <stop offset="1" stop-color="navy" stop-opacity="0"/>
    </linearGradient>
    <linearGradient id="a">
      <stop offset="0" stop-color="#9cafff"/>
      <stop offset="1" stop-color="#9cafff" stop-opacity="0"/>
    </linearGradient>
    <linearGradient xlink:href="#a" id="d" x1="104.92" y1="146.62" x2="117.52" y2="132.23" gradientUnits="userSpaceOnUse" gradientTransform="matrix(.70556 0 0 .70556 29.13 21)"/>
    <linearGradient xlink:href="#b" id="c" x1="104.92" y1="146.62" x2="117.52" y2="132.23" gradientUnits="userSpaceOnUse" gradientTransform="matrix(.70556 0 0 .70556 29.13 21)"/>
    <linearGradient y2="133.89" x2="435.14" y1="254.89" x1="231.01" gradientTransform="matrix(.02523 0 0 .02523 -14.35 8.55)" gradientUnits="userSpaceOnUse" id="f" xlink:href="#a"/>
    <linearGradient y2="-5.27" x2="126.71" y1="53.47" x1="77.5" gradientTransform="matrix(.09534 0 0 .09534 -14.35 8.55)" gradientUnits="userSpaceOnUse" id="e" xlink:href="#a"/>
  </defs>
  <rect width="10.09" height="10.09" x="99.16" y="117.22" ry="1.99" opacity=".85" fill="url(#c)" stroke="url(#d)" stroke-width=".49" stroke-linejoin="round" stroke-miterlimit="2.7" stroke-opacity=".69" paint-order="markers fill stroke" transform="translate(-98.92 -116.98)"/>
  <g stroke-width=".92">
    <path d="M-5.56 7.94c-1.06 0-2.01.85-2.01 1.9 0 1.06.87 2.32 2 4.13 1.15-1.8 2.02-3.07 2.02-4.12 0-1.06-.96-1.91-2.01-1.91zm0 2.76a.75.75 0 110-1.5.75.75 0 010 1.5z" fill="url(#e)" transform="matrix(1.09272 0 0 1.09272 11.38 -7.35)"/>
    <path d="M-5.57 12.9a3.18 1.15 0 00-3.18 1.15 3.18 1.15 0 003.18 1.15 3.18 1.15 0 003.18-1.15 3.18 1.15 0 00-3.18-1.16zm.01.02a2.78.81 0 012.78.8 2.78.81 0 01-2.78.82 2.78.81 0 01-2.77-.81 2.78.81 0 012.77-.81z" opacity=".85" fill="url(#f)" fill-rule="evenodd" paint-order="markers fill stroke" transform="matrix(1.09272 0 0 1.09272 11.38 -7.35)"/>
  </g>
</svg>