<?xml version="1.0" encoding="utf-8"?>
<!-- Generator: Adobe Illustrator 23.0.3, SVG Export Plug-In . SVG Version: 6.00 Build 0)  -->
<svg version="1.1" id="Layer_1" xmlns="http://www.w3.org/2000/svg" xmlns:xlink="http://www.w3.org/1999/xlink" x="0px" y="0px"
	 viewBox="0 0 24 24" style="enable-background:new 0 0 24 24;" xml:space="preserve">
<style type="text/css">
	.st0{fill:url(#SVGID_1_);}
	.st1{fill:url(#SVGID_2_);}
	.st2{fill:url(#SVGID_3_);}
	.st3{fill:url(#SVGID_4_);}
	.st4{fill:url(#SVGID_5_);}
	.st5{fill:url(#SVGID_6_);}
	.st6{fill:url(#SVGID_7_);}
	.st7{fill:url(#SVGID_8_);}
	.st8{fill:url(#SVGID_9_);}
	.st9{fill:url(#SVGID_10_);}
	.st10{fill:url(#SVGID_11_);}
	.st11{fill:url(#SVGID_12_);}
	.st12{fill:url(#SVGID_13_);}
	.st13{fill:url(#SVGID_14_);}
	.st14{fill:url(#SVGID_15_);}
	.st15{fill:url(#SVGID_16_);}
	.st16{fill:url(#SVGID_17_);}
	.st17{fill:url(#SVGID_18_);}
	.st18{fill:url(#SVGID_19_);}
	.st19{fill:url(#SVGID_20_);}
	.st20{fill:url(#SVGID_21_);}
	.st21{fill:url(#SVGID_22_);}
	.st22{fill:url(#SVGID_23_);}
	.st23{fill:url(#SVGID_24_);}
	.st24{fill:url(#SVGID_25_);}
	.st25{fill:url(#SVGID_26_);}
	.st26{fill:url(#SVGID_27_);}
	.st27{fill:url(#SVGID_28_);}
	.st28{fill:url(#SVGID_29_);}
	.st29{fill:url(#SVGID_30_);}
	.st30{fill:url(#SVGID_31_);}
	.st31{fill:url(#SVGID_32_);}
	.st32{fill:url(#SVGID_33_);}
	.st33{fill:url(#SVGID_34_);}
	.st34{fill:url(#Shape_2_);}
	.st35{fill:url(#SVGID_35_);}
	.st36{fill:url(#SVGID_36_);}
	.st37{fill:url(#SVGID_37_);}
	.st38{fill:url(#SVGID_38_);}
	.st39{fill:url(#SVGID_39_);}
	.st40{fill:url(#SVGID_40_);}
	.st41{fill:url(#SVGID_41_);}
	.st42{fill:url(#SVGID_42_);}
	.st43{fill:url(#SVGID_43_);}
	.st44{fill:url(#SVGID_44_);}
	.st45{fill:url(#SVGID_45_);}
	.st46{fill:url(#SVGID_46_);}
	.st47{fill:url(#SVGID_47_);}
	.st48{fill:url(#SVGID_48_);}
	.st49{fill:url(#SVGID_49_);}
</style>
<linearGradient id="SVGID_1_" gradientUnits="userSpaceOnUse" x1="2.5531" y1="12" x2="22.237" y2="12">
	<stop  offset="0" style="stop-color:#2183BF"/>
	<stop  offset="1" style="stop-color:#19086D"/>
</linearGradient>
<path class="st0" d="M21.7,17.5l-3.3-3.3c-0.7-0.7-1.8-0.7-2.4,0L15.2,15c-0.7,0.7-1.8,0.7-2.4,0l-3.4-3.4c-0.7-0.7-0.7-1.8,0-2.4
	l0.8-0.8c0.7-0.7,0.7-1.8,0-2.4L6.9,2.7C6.2,2,5.1,2,4.5,2.7L3.6,3.5C2.6,4.5,2.3,6.9,2.8,9.6c0.4,1.7,1.4,5,4.2,7.9
	c2.8,2.8,6.1,3.8,7.8,4.2c1.9,0.4,4.7,0.4,6-0.9l0.8-0.8C22.4,19.2,22.4,18.1,21.7,17.5z M5.3,3.5c0.2-0.2,0.6-0.2,0.8,0l3.3,3.3
	c0.2,0.2,0.2,0.6,0,0.8L8.9,8L4.9,3.9L5.3,3.5z M15.1,20.5c-1.6-0.3-4.6-1.2-7.2-3.8C5.2,14,4.3,10.9,4,9.3C3.5,7.2,3.7,5.6,4.1,4.8
	l4,4c-0.7,1.1-0.6,2.6,0.4,3.6l3.4,3.4c1,1,2.5,1.1,3.6,0.4l4,4C18.4,20.9,16.5,20.7,15.1,20.5z M20.9,19.1l-0.4,0.4l-4.1-4.1
	l0.4-0.4c0.2-0.2,0.6-0.2,0.8,0l3.3,3.3C21.1,18.5,21.1,18.9,20.9,19.1z M22.2,10.8c0,0.3-0.3,0.6-0.6,0.6s-0.6-0.3-0.6-0.6
	c0-4.1-3.4-7.5-7.5-7.5c-0.3,0-0.6-0.3-0.6-0.6s0.3-0.6,0.6-0.6C18.4,2.2,22.2,6,22.2,10.8z M19.9,10.8c0,0.3-0.3,0.6-0.6,0.6
	c-0.3,0-0.6-0.3-0.6-0.6c0-2.9-2.3-5.2-5.2-5.2C13.3,5.6,13,5.4,13,5s0.3-0.6,0.6-0.6C17.1,4.5,19.9,7.3,19.9,10.8z M17.6,10.8
	c0,0.3-0.3,0.6-0.6,0.6s-0.6-0.3-0.6-0.6c0-1.6-1.3-2.9-2.9-2.9c-0.3,0-0.6-0.3-0.6-0.6c0-0.3,0.3-0.6,0.6-0.6
	C15.8,6.8,17.6,8.6,17.6,10.8z M15.3,10.8c0,0.3-0.3,0.6-0.6,0.6c-0.3,0-0.6-0.3-0.6-0.6c0-0.3-0.3-0.6-0.6-0.6
	c-0.3,0-0.6-0.3-0.6-0.6s0.3-0.6,0.6-0.6C14.5,9.1,15.3,9.9,15.3,10.8z"/>
</svg>
